<?xml version="1.0" encoding="iso-8859-1"?>
<!-- Generator: Adobe Illustrator 19.0.0, SVG Export Plug-In . SVG Version: 6.00 Build 0)  -->
<svg version="1.1" id="Layer_1" xmlns="http://www.w3.org/2000/svg" xmlns:xlink="http://www.w3.org/1999/xlink" x="0px" y="0px"
	 viewBox="0 0 512 512" style="enable-background:new 0 0 512 512;" xml:space="preserve">
<path style="fill:#5EC2D3;" d="M507.753,260.253c0,87.537-44.669,164.625-112.465,209.72c-12.928,8.615-26.708,16.062-41.164,22.187
	c-5.798,2.457-11.705,4.695-17.721,6.715c-0.011,0.011-0.011,0.011-0.011,0C311.146,507.392,284.111,512,255.994,512
	c-42.857,0-83.202-10.711-118.525-29.59c-18.901-10.1-36.349-22.548-51.974-36.95C38.598,402.286,8.146,341.523,4.597,273.629
	c-0.229-4.433-0.349-8.888-0.349-13.376c0-139.042,112.716-251.747,251.747-251.747C395.036,8.506,507.753,121.211,507.753,260.253z
	"/>
<path style="fill:#EB305B;" d="M452.797,280.737v74.587c0,4.619-3.756,8.375-8.375,8.375h-15.909
	c-7.403,18.125-18.726,34.908-33.194,49.779v55.217c0,0.426-0.011,0.852-0.033,1.278c-12.928,8.615-26.708,16.062-41.164,22.187
	c-5.798,2.457-11.705,4.695-17.721,6.715c-19.72-1.736-35.017-14.588-35.017-30.18c-24.688,7.512-51.636,11.651-79.817,11.651
	c-28.193,0-55.152-4.138-79.839-11.651c0,4.935-1.529,9.598-4.258,13.714c-18.901-10.1-36.349-22.548-51.974-36.95
	C38.598,402.286,8.146,341.523,4.597,273.629h6.519c15.254-47.181,56.713-86.434,111.854-108.076h37.692l159.482,0.011
	c13.125,5.143,25.496,11.301,36.917,18.311c10.591-11.869,28.411-19.665,48.578-19.665h11.585v77.819
	c6.005,9.641,10.864,19.785,14.391,30.333h12.808C449.041,272.362,452.797,276.118,452.797,280.737z"/>
<g>
	<path style="fill:#D82B59;" d="M45.303,295.576c-6.464,40.684,6.551,81.99,37.692,115.282c0.83,0.874,1.66,1.758,2.5,2.621v31.982
		C38.598,402.286,8.146,341.523,4.597,273.629h6.519c15.254-47.181,56.713-86.434,111.854-108.076h37.692
		c-55.141,21.641-96.6,60.895-111.854,108.076h-0.033L45.303,295.576z"/>
	<path style="fill:#D82B59;" d="M417.221,164.208v4.701c-9.053,3.444-46.316,47.453-46.316,64.388
		c-7.003-4.31-6.172-45.797-13.85-49.42c10.594-11.872,28.411-19.668,48.581-19.668L417.221,164.208L417.221,164.208z"/>
	<path style="fill:#D82B59;" d="M354.123,492.16c-5.798,2.457-11.705,4.695-17.721,6.715c-0.011,0.011-0.011,0.011-0.011,0
		c-19.709-1.736-35.006-14.588-35.006-30.18c12.502-1.965,14.435-5.416,26.053-8.954
		C327.437,470.039,340.649,484.146,354.123,492.16z"/>
</g>
<g>
	<circle style="fill:#4D4D4D;" cx="373.657" cy="312.566" r="13.965"/>
	<path style="fill:#4D4D4D;" d="M348.991,211.423l-10.384,13.703l-8.921-3.985c-13.015-5.809-26.773-10.526-41.022-14.096
		c-0.579-0.142-1.157-0.284-1.736-0.426c-14.151-3.472-28.782-5.798-43.643-6.934c-0.011,0-0.011,0-0.022,0
		c-7.185-0.568-14.435-0.852-21.696-0.852c-2.358,0-4.695,0.033-7.032,0.098c-5.034,0.12-10.056,0.382-15.046,0.775
		c-14.872,1.168-29.525,3.516-43.687,7.01c-0.459,0.098-0.906,0.218-1.354,0.328c-14.249,3.57-28.029,8.287-41.022,14.096
		l-8.921,3.985l-10.373-13.703l8.91-3.985c11.203-5.001,22.93-9.27,35.006-12.764c0.863-0.251,1.736-0.502,2.61-0.732
		c10.035-2.828,20.331-5.099,30.802-6.824h0.011c13.878-2.315,28.051-3.669,42.355-4.029c1.933-0.044,3.854-0.076,5.787-0.087
		c0.644-0.011,1.299-0.011,1.954-0.011c2.566,0,5.154,0.033,7.709,0.098c14.162,0.36,28.204,1.682,41.961,3.964
		c10.471,1.703,20.768,3.964,30.813,6.77c1.005,0.273,2.009,0.557,3.014,0.852c12.076,3.494,23.781,7.763,34.995,12.764
		L348.991,211.423z"/>
</g>
<g>
	<path style="fill:#F0A037;" d="M310.065,113.775c0,30.497-15.385,57.412-38.828,73.386c-8.397,5.732-17.831,10.045-27.952,12.633
		c-0.011,0-0.011,0-0.022,0c-7.185-0.568-14.435-0.852-21.696-0.852c-2.359,0-4.695,0.033-7.032,0.098
		c-5.034,0.12-10.056,0.382-15.046,0.775c-0.295-0.066-0.568-0.142-0.852-0.207c-9.827-2.588-18.988-6.824-27.166-12.382
		c-23.487-15.963-38.915-42.9-38.915-73.452c0-49.015,39.723-88.749,88.738-88.749c10.133,0,19.872,1.692,28.935,4.826
		c0.284,0.098,0.579,0.197,0.863,0.306C285.443,42.387,310.065,75.199,310.065,113.775z"/>
	<path style="fill:#F0A037;" d="M258.375,6.191C246.757,2.184,234.277,0,221.294,0c-62.839,0-113.775,50.937-113.775,113.775
		c0,31.326,12.655,59.694,33.139,80.276c4.662,4.684,9.729,8.954,15.145,12.775c14.162-3.494,28.815-5.842,43.687-7.01
		c-0.295-0.066-0.568-0.12-0.863-0.207c-9.827-2.588-18.988-6.824-27.166-12.382c-23.487-15.963-38.915-42.911-38.915-73.452
		c0-49.015,39.734-88.749,88.749-88.749c10.133,0,19.862,1.692,28.924,4.826c0.295,0.098,0.579,0.197,0.874,0.306
		c34.362,12.24,58.951,45.052,58.951,83.617c0,30.497-15.385,57.401-38.806,73.386c-8.397,5.722-17.831,10.045-27.952,12.633
		c14.861,1.136,29.492,3.461,43.643,6.934c5.405-3.822,10.471-8.102,15.123-12.797c20.418-20.56,33.03-48.884,33.03-80.156
		C335.08,63.919,303.012,21.565,258.375,6.191z"/>
</g>
<g>
	<path style="fill:#F9B767;" d="M251.088,30.162l-51.559,169.664c-0.306-0.061-0.599-0.146-0.893-0.221
		c-38.039-10.008-66.081-44.646-66.081-85.829c0-49.014,39.727-88.754,88.741-88.754c10.131,0,19.87,1.701,28.936,4.833
		C250.512,29.954,250.806,30.052,251.088,30.162z"/>
	<path style="fill:#F9B767;" d="M335.08,113.775c0,31.272-12.611,59.596-33.03,80.156c-4.651,4.695-9.718,8.975-15.123,12.797
		c-14.151-3.472-28.782-5.798-43.643-6.934c10.122-2.588,19.556-6.912,27.952-12.633c23.421-15.985,38.806-42.89,38.806-73.386
		c0-38.566-24.589-71.377-58.951-83.617l7.283-23.967C303.012,21.565,335.08,63.919,335.08,113.775z"/>
</g>
<path style="fill:#E09132;" d="M214.058,92.904h14.489h23.187V78.414h-23.187V62.346h-14.489v16.069h-6.863
	c-9.016,0-16.325,7.309-16.325,16.325v9.96c0,9.016,7.309,16.325,16.325,16.325h23.234c3.764,0,6.816,3.052,6.816,6.816l0,0
	c0,3.764-3.052,6.816-6.816,6.816h-1.882h-14.489h-23.187v14.489h23.187v16.069h14.489v-16.069h6.863
	c9.016,0,16.325-7.309,16.325-16.325v-9.961c0-9.016-7.309-16.325-16.325-16.325h-23.234c-3.764,0-6.816-3.052-6.816-6.816l0,0
	c0-3.764,3.052-6.816,6.816-6.816C212.176,92.904,214.058,92.904,214.058,92.904z"/>
<path style="fill:#D82B59;" d="M452.797,336.249v19.075c0,4.619-3.756,8.375-8.375,8.375h-15.909c0,0,4.379-14.348,4.379-27.45
	H452.797z"/>
<g>
</g>
<g>
</g>
<g>
</g>
<g>
</g>
<g>
</g>
<g>
</g>
<g>
</g>
<g>
</g>
<g>
</g>
<g>
</g>
<g>
</g>
<g>
</g>
<g>
</g>
<g>
</g>
<g>
</g>
</svg>
